<svg width="22" height="22" viewBox="0 0 22 22" fill="none" xmlns="http://www.w3.org/2000/svg">
<path d="M16.79 21.75H5.21C2.47 21.75 0.25 19.52 0.25 16.78V9.37C0.25 8.01 1.09 6.3 2.17 5.46L7.56 1.26C9.18 4.58956e-06 11.77 -0.0599955 13.45 1.12L19.63 5.45C20.82 6.28 21.75 8.06001 21.75 9.51V16.79C21.75 19.52 19.53 21.75 16.79 21.75ZM8.48 2.44L3.09 6.64C2.38 7.2 1.75 8.47001 1.75 9.37V16.78C1.75 18.69 3.3 20.25 5.21 20.25H16.79C18.7 20.25 20.25 18.7 20.25 16.79V9.51C20.25 8.55 19.56 7.22 18.77 6.68L12.59 2.35C11.45 1.55 9.57 1.59 8.48 2.44Z" fill="#171717"/>
</svg>
